<?xml version="1.0" encoding="UTF-8"?>
<svg width="345px" height="60px" viewBox="0 0 345 60" version="1.1" xmlns="http://www.w3.org/2000/svg" xmlns:xlink="http://www.w3.org/1999/xlink">
    <!-- Generator: Sketch 51.1 (57501) - http://www.bohemiancoding.com/sketch -->
    <title>SVG</title>
    <desc>Created with Sketch.</desc>
    <defs></defs>
    <g id="SVG" stroke="none" stroke-width="1" fill="none" fill-rule="evenodd">
        <g id="BlueRibbonTop" transform="translate(-255.000000, 30.000000) scale(-1, 1) translate(255.000000, -30.000000) translate(-855.000000, 0.000000)">
            <g id="RibbonBorder">
                <path d="M264.255492,-2.33146835e-14 L265.446991,0.882352941 L265,0.882352941 L344.830467,60 L0,60 L0,0 L264.255492,0 Z M935.043933,0 L1200,0 L1200,60 L855.213466,60 L935.043933,0.882352941 L933.852433,0.882352941 L935.043933,-8.8817842e-16 Z" id="Combined-Shape" fill="#526E7F" fill-rule="nonzero"></path>
                <g id="Group" transform="translate(200.000000, 0.000000)" fill="#223C4C" fill-rule="nonzero">
                    <path d="M64,0 L145.021966,60 L81.0219665,60 L0,0 L64,0 Z M653.021966,60 L734.043933,0 L798.043933,0 L717.021966,60 L653.021966,60 Z" id="Combined-Shape"></path>
                </g>
            </g>
        </g>
    </g>
</svg>